<svg width="180" height="61" viewBox="0 0 180 61" fill="none" xmlns="http://www.w3.org/2000/svg">
<path d="M0 10.8672C0 7.6056 0 5.9748 0.532843 4.6884C1.2433 2.97321 2.60602 1.61049 4.32122 0.900031C5.60761 0.367188 7.23841 0.367188 10.5 0.367188H169.5C172.762 0.367188 174.392 0.367188 175.679 0.900031C177.394 1.61049 178.757 2.97321 179.467 4.6884C180 5.9748 180 7.6056 180 10.8672V49.9526C180 53.2142 180 54.845 179.467 56.1314C178.757 57.8466 177.394 59.2093 175.679 59.9198C174.392 60.4526 172.762 60.4526 169.5 60.4526H10.5C7.23841 60.4526 5.60761 60.4526 4.32122 59.9198C2.60602 59.2093 1.2433 57.8466 0.532843 56.1314C0 54.845 0 53.2142 0 49.9526V10.8672Z" fill="black"/>
<path d="M122.289 29.2099V32.6513H120.135V34.9081H122.289V42.5765C122.289 45.195 123.472 46.2424 126.447 46.2424C126.97 46.2424 127.468 46.18 127.904 46.1052V43.8733C127.531 43.9107 127.294 43.9356 126.883 43.9356C125.551 43.9356 124.966 43.3122 124.966 41.8907V34.9081H127.904V32.6513H124.966V29.2099H122.289Z" fill="white"/>
<path d="M135.485 46.4294C139.445 46.4294 141.872 43.7735 141.872 39.372C141.872 34.9954 139.432 32.3271 135.485 32.3271C131.526 32.3271 129.085 34.9954 129.085 39.372C129.085 43.7735 131.513 46.4294 135.485 46.4294ZM135.485 44.0478C133.157 44.0478 131.849 42.3396 131.849 39.372C131.849 36.4294 133.157 34.7086 135.485 34.7086C137.801 34.7086 139.121 36.4294 139.121 39.372C139.121 42.3271 137.801 44.0478 135.485 44.0478Z" fill="white"/>
<path d="M143.95 46.1676H146.627V38.1501C146.627 36.2423 148.059 34.958 150.088 34.958C150.561 34.958 151.358 35.0453 151.582 35.1201V32.4767C151.296 32.4019 150.786 32.3645 150.387 32.3645C148.619 32.3645 147.112 33.3371 146.726 34.6712H146.527V32.5889H143.95V46.1676Z" fill="white"/>
<path d="M158.229 34.6089C160.209 34.6089 161.504 35.9929 161.566 38.1251H154.718C154.868 36.0054 156.25 34.6089 158.229 34.6089ZM161.554 42.5017C161.056 43.5616 159.948 44.1476 158.329 44.1476C156.187 44.1476 154.805 42.6389 154.718 40.2573V40.1077H164.293V39.1725C164.293 34.9081 162.014 32.3271 158.242 32.3271C154.419 32.3271 151.991 35.0827 151.991 39.4219C151.991 43.7611 154.369 46.4294 158.254 46.4294C161.355 46.4294 163.521 44.9331 164.131 42.5017H161.554Z" fill="white"/>
<path d="M104.733 41.1532C104.94 44.4875 107.715 46.6199 111.844 46.6199C116.258 46.6199 119.02 44.3841 119.02 40.8172C119.02 38.0127 117.445 36.4619 113.625 35.5702L111.573 35.0661C109.147 34.4975 108.166 33.735 108.166 32.4039C108.166 30.7238 109.689 29.6253 111.973 29.6253C114.141 29.6253 115.638 30.698 115.909 32.4168H118.723C118.555 29.2764 115.793 27.0664 112.012 27.0664C107.947 27.0664 105.237 29.2764 105.237 32.5977C105.237 35.3375 106.772 36.9659 110.141 37.7543L112.541 38.3358C115.006 38.9174 116.09 39.7704 116.09 41.192C116.09 42.8462 114.387 44.0481 112.064 44.0481C109.573 44.0481 107.844 42.9237 107.598 41.1532H104.733Z" fill="white"/>
<path d="M77.0024 32.3645C75.1596 32.3645 73.5659 33.2872 72.7441 34.8333H72.5449V32.5889H69.9675V50.6813H72.6445V44.1102H72.8562C73.5659 45.5441 75.0974 46.392 77.0273 46.392C80.4514 46.392 82.6303 43.6863 82.6303 39.372C82.6303 35.0578 80.4514 32.3645 77.0024 32.3645ZM76.2429 43.9855C74.0017 43.9855 72.5947 42.2149 72.5947 39.3845C72.5947 36.5416 74.0017 34.771 76.2553 34.771C78.5215 34.771 79.8786 36.5042 79.8786 39.372C79.8786 42.2523 78.5215 43.9855 76.2429 43.9855Z" fill="white"/>
<path d="M91.9976 32.3645C90.1548 32.3645 88.5611 33.2872 87.7393 34.8333H87.5401V32.5889H84.9627V50.6813H87.6397V44.1102H87.8514C88.5611 45.5441 90.0926 46.392 92.0225 46.392C95.4466 46.392 97.6255 43.6863 97.6255 39.372C97.6255 35.0578 95.4466 32.3645 91.9976 32.3645ZM91.2381 43.9855C88.9969 43.9855 87.5899 42.2149 87.5899 39.3845C87.5899 36.5416 88.9969 34.771 91.2505 34.771C93.5167 34.771 94.8738 36.5042 94.8738 39.372C94.8738 42.2523 93.5167 43.9855 91.2381 43.9855Z" fill="white"/>
<path d="M65.1645 46.1676H68.236L61.5123 27.5187H58.4021L51.6785 46.1676H54.6467L56.3631 41.2178H63.461L65.1645 46.1676ZM59.8088 30.9047H60.0282L62.7254 38.7882H57.0987L59.8088 30.9047Z" fill="white"/>
<path d="M53.4767 13.4524V22.4487H56.7202C59.3972 22.4487 60.9474 20.7966 60.9474 17.9225C60.9474 15.0921 59.3848 13.4524 56.7202 13.4524H53.4767ZM54.8712 14.7242H56.5646C58.4261 14.7242 59.528 15.9088 59.528 17.9412C59.528 20.0048 58.4447 21.1769 56.5646 21.1769H54.8712V14.7242Z" fill="white"/>
<path d="M65.695 22.5796C67.6748 22.5796 68.8888 21.2517 68.8888 19.0509C68.8888 16.8627 67.6686 15.5285 65.695 15.5285C63.7153 15.5285 62.4951 16.8627 62.4951 19.0509C62.4951 21.2517 63.7091 22.5796 65.695 22.5796ZM65.695 21.3889C64.5309 21.3889 63.8772 20.5347 63.8772 19.0509C63.8772 17.5796 64.5309 16.7193 65.695 16.7193C66.853 16.7193 67.5129 17.5796 67.5129 19.0509C67.5129 20.5285 66.853 21.3889 65.695 21.3889Z" fill="white"/>
<path d="M79.227 15.6594H77.8885L76.6807 20.8402H76.5749L75.1804 15.6594H73.8979L72.5033 20.8402H72.4037L71.1898 15.6594H69.8326L71.7002 22.4487H73.0761L74.4706 17.4487H74.5765L75.9772 22.4487H77.3655L79.227 15.6594Z" fill="white"/>
<path d="M80.7684 22.4487H82.1069V18.4774C82.1069 17.4175 82.7357 16.7567 83.7256 16.7567C84.7155 16.7567 85.1886 17.2991 85.1886 18.3901V22.4487H86.5271V18.0534C86.5271 16.4387 85.6929 15.5285 84.1801 15.5285C83.1591 15.5285 82.4867 15.9836 82.1567 16.738H82.0571V15.6594H80.7684V22.4487Z" fill="white"/>
<path d="M88.6351 22.4487H89.9736V13.0098H88.6351V22.4487Z" fill="white"/>
<path d="M95.0076 22.5796C96.9873 22.5796 98.2013 21.2517 98.2013 19.0509C98.2013 16.8627 96.9811 15.5285 95.0076 15.5285C93.0279 15.5285 91.8076 16.8627 91.8076 19.0509C91.8076 21.2517 93.0216 22.5796 95.0076 22.5796ZM95.0076 21.3889C93.8434 21.3889 93.1897 20.5347 93.1897 19.0509C93.1897 17.5796 93.8434 16.7193 95.0076 16.7193C96.1656 16.7193 96.8255 17.5796 96.8255 19.0509C96.8255 20.5285 96.1656 21.3889 95.0076 21.3889Z" fill="white"/>
<path d="M102.189 21.4325C101.461 21.4325 100.932 21.0771 100.932 20.4662C100.932 19.8677 101.355 19.5497 102.289 19.4874L103.945 19.3814V19.9487C103.945 20.7904 103.198 21.4325 102.189 21.4325ZM101.847 22.5609C102.737 22.5609 103.478 22.1744 103.883 21.4949H103.989V22.4487H105.277V17.8103C105.277 16.3764 104.319 15.5285 102.619 15.5285C101.081 15.5285 99.9856 16.2766 99.8486 17.4425H101.144C101.293 16.9624 101.81 16.6881 102.557 16.6881C103.472 16.6881 103.945 17.0933 103.945 17.8103V18.3963L102.108 18.5023C100.496 18.6021 99.5871 19.3066 99.5871 20.5285C99.5871 21.7692 100.54 22.5609 101.847 22.5609Z" fill="white"/>
<path d="M109.82 22.5609C110.753 22.5609 111.544 22.1183 111.949 21.3764H112.054V22.4487H113.337V13.0098H111.998V16.738H111.899C111.532 15.9898 110.747 15.5472 109.82 15.5472C108.107 15.5472 107.006 16.9063 107.006 19.0509C107.006 21.2018 108.095 22.5609 109.82 22.5609ZM110.199 16.7504C111.32 16.7504 112.023 17.642 112.023 19.0572C112.023 20.4786 111.326 21.3577 110.199 21.3577C109.066 21.3577 108.388 20.4911 108.388 19.0509C108.388 17.6233 109.072 16.7504 110.199 16.7504Z" fill="white"/>
<path d="M122.017 22.5796C123.996 22.5796 125.21 21.2517 125.21 19.0509C125.21 16.8627 123.99 15.5285 122.017 15.5285C120.037 15.5285 118.817 16.8627 118.817 19.0509C118.817 21.2517 120.031 22.5796 122.017 22.5796ZM122.017 21.3889C120.852 21.3889 120.199 20.5347 120.199 19.0509C120.199 17.5796 120.852 16.7193 122.017 16.7193C123.175 16.7193 123.835 17.5796 123.835 19.0509C123.835 20.5285 123.175 21.3889 122.017 21.3889Z" fill="white"/>
<path d="M126.982 22.4487H128.321V18.4774C128.321 17.4175 128.949 16.7567 129.939 16.7567C130.929 16.7567 131.402 17.2991 131.402 18.3901V22.4487H132.741V18.0534C132.741 16.4387 131.907 15.5285 130.394 15.5285C129.373 15.5285 128.7 15.9836 128.371 16.738H128.271V15.6594H126.982V22.4487Z" fill="white"/>
<path d="M138.905 13.9699V15.6906H137.828V16.819H138.905V20.6532C138.905 21.9624 139.497 22.4861 140.985 22.4861C141.246 22.4861 141.495 22.455 141.713 22.4176V21.3016C141.526 21.3203 141.408 21.3328 141.203 21.3328C140.537 21.3328 140.244 21.021 140.244 20.3103V16.819H141.713V15.6906H140.244V13.9699H138.905Z" fill="white"/>
<path d="M143.51 22.4487H144.848V18.4836C144.848 17.4549 145.458 16.7629 146.554 16.7629C147.5 16.7629 148.005 17.3115 148.005 18.3963V22.4487H149.343V18.0659C149.343 16.4512 148.453 15.5347 147.009 15.5347C145.988 15.5347 145.272 15.9898 144.942 16.7504H144.836V13.0098H143.51V22.4487Z" fill="white"/>
<path d="M154.172 16.6694C155.162 16.6694 155.809 17.3614 155.84 18.4275H152.416C152.491 17.3676 153.182 16.6694 154.172 16.6694ZM155.834 20.6158C155.585 21.1457 155.031 21.4387 154.222 21.4387C153.151 21.4387 152.46 20.6844 152.416 19.4936V19.4188H157.204V18.9512C157.204 16.819 156.064 15.5285 154.178 15.5285C152.267 15.5285 151.053 16.9063 151.053 19.0759C151.053 21.2455 152.242 22.5796 154.184 22.5796C155.734 22.5796 156.818 21.8315 157.123 20.6158H155.834Z" fill="white"/>
<path d="M37.1535 30.8621C37.186 28.337 38.5401 25.9477 40.6883 24.6251C39.3331 22.6869 37.0632 21.458 34.7016 21.384C32.1827 21.1192 29.7408 22.8934 28.4572 22.8934C27.1488 22.8934 25.1726 21.4103 23.0445 21.4541C20.2706 21.5439 17.6847 23.1232 16.3351 25.5518C13.4341 30.5815 15.598 37.9736 18.3769 42.0393C19.7673 44.0302 21.3922 46.254 23.5184 46.1752C25.5989 46.0887 26.376 44.8465 28.8875 44.8465C31.3756 44.8465 32.1046 46.1752 34.274 46.125C36.5065 46.0887 37.9131 44.1253 39.2547 42.1156C40.2537 40.697 41.0224 39.1292 41.5323 37.4702C38.9087 36.359 37.1566 33.7148 37.1535 30.8621Z" fill="white"/>
<path d="M33.056 18.7102C34.2733 17.2468 34.873 15.3658 34.7278 13.4668C32.868 13.6624 31.1501 14.5525 29.9164 15.9598C28.71 17.3347 28.0821 19.1826 28.2008 21.009C30.0613 21.0282 31.8902 20.1622 33.056 18.7102Z" fill="white"/>
<path d="M4.32122 59.9198L3.93853 60.8437L4.32122 59.9198ZM0.532843 56.1314L1.45672 55.7487L0.532843 56.1314ZM179.467 56.1314L180.391 56.5141L179.467 56.1314ZM175.679 59.9198L175.296 58.9959L175.679 59.9198ZM175.679 0.900031L176.061 -0.0238488L175.679 0.900031ZM179.467 4.6884L180.391 4.30572L179.467 4.6884ZM10.5 1.36719H169.5V-0.632812H10.5V1.36719ZM179 10.8672V49.9526H181V10.8672H179ZM169.5 59.4526H10.5V61.4526H169.5V59.4526ZM1 49.9526V10.8672H-1V49.9526H1ZM10.5 59.4526C8.85552 59.4526 7.67225 59.4521 6.73798 59.3884C5.8127 59.3252 5.20494 59.2035 4.7039 58.9959L3.93853 60.8437C4.72389 61.169 5.57473 61.3136 6.60184 61.3837C7.61997 61.4532 8.88289 61.4526 10.5 61.4526V59.4526ZM-1 49.9526C-1 51.5697 -1.00054 52.8327 -0.931075 53.8508C-0.860996 54.8779 -0.716341 55.7287 -0.391036 56.5141L1.45672 55.7487C1.24918 55.2477 1.12742 54.6399 1.06429 53.7147C1.00054 52.7804 1 51.5971 1 49.9526H-1ZM4.7039 58.9959C3.23373 58.387 2.06569 57.2189 1.45672 55.7487L-0.391036 56.5141C0.420915 58.4743 1.97831 60.0317 3.93853 60.8437L4.7039 58.9959ZM179 49.9526C179 51.5971 178.999 52.7804 178.936 53.7147C178.873 54.6399 178.751 55.2477 178.543 55.7487L180.391 56.5141C180.716 55.7287 180.861 54.8779 180.931 53.8508C181.001 52.8327 181 51.5698 181 49.9526H179ZM169.5 61.4526C171.117 61.4526 172.38 61.4532 173.398 61.3837C174.425 61.3136 175.276 61.169 176.061 60.8437L175.296 58.9959C174.795 59.2035 174.187 59.3252 173.262 59.3884C172.328 59.4521 171.144 59.4526 169.5 59.4526V61.4526ZM178.543 55.7487C177.934 57.2189 176.766 58.387 175.296 58.9959L176.061 60.8437C178.022 60.0317 179.579 58.4743 180.391 56.5141L178.543 55.7487ZM169.5 1.36719C171.144 1.36719 172.328 1.36773 173.262 1.43147C174.187 1.4946 174.795 1.61637 175.296 1.82391L176.061 -0.0238488C175.276 -0.349154 174.425 -0.493808 173.398 -0.563888C172.38 -0.633354 171.117 -0.632812 169.5 -0.632812V1.36719ZM181 10.8672C181 9.25007 181.001 7.98716 180.931 6.96903C180.861 5.94191 180.716 5.09108 180.391 4.30572L178.543 5.07109C178.751 5.57213 178.873 6.17989 178.936 7.10517C178.999 8.03943 179 9.22271 179 10.8672H181ZM175.296 1.82391C176.766 2.43287 177.934 3.60092 178.543 5.07109L180.391 4.30572C179.579 2.3455 178.022 0.788103 176.061 -0.0238488L175.296 1.82391ZM10.5 -0.632812C8.88289 -0.632812 7.61997 -0.633354 6.60184 -0.563888C5.57473 -0.493808 4.72389 -0.349154 3.93853 -0.0238488L4.7039 1.82391C5.20494 1.61637 5.8127 1.4946 6.73798 1.43147C7.67225 1.36773 8.85552 1.36719 10.5 1.36719V-0.632812ZM1 10.8672C1 9.22271 1.00054 8.03943 1.06429 7.10517C1.12742 6.17989 1.24918 5.57213 1.45672 5.07109L-0.391036 4.30572C-0.716341 5.09108 -0.860996 5.94191 -0.931075 6.96903C-1.00054 7.98716 -1 9.25007 -1 10.8672H1ZM3.93853 -0.0238488C1.97831 0.788103 0.420915 2.3455 -0.391036 4.30572L1.45672 5.07109C2.06569 3.60092 3.23373 2.43287 4.7039 1.82391L3.93853 -0.0238488Z" fill="#A6A6A6"/>
</svg>
